#!OML:ASF F:\VICON\USERDATA\INSTALL\rory3\rory3.ASF
:FULLY-SPECIFIED
:DEGREES
1147
root -5.16493 17.6998 12.4173 -354.731 -56.2079 -7.53178
lowerback 9.79912 4.20556 5.64473
upperback 0.351292 6.26035 1.22781
thorax -4.6466 2.97067 -2.6979
lowerneck -15.164 -6.23445 -10.4413
upperneck 31.296 -9.45684 8.74808
head 14.1809 -4.37219 3.69106
rclavicle -6.68289e-014 -1.47101e-014
rhumerus -25.481 0.790077 -85.6717
rradius 35.2579
rwrist 2.37436
rhand -13.4886 9.00939
rfingers 7.12502
rthumb 12.6222 -20.5893
lclavicle -6.68289e-014 -1.47101e-014
lhumerus -42.1113 3.97462 83.972
lradius 29.1983
lwrist -8.44129
lhand -12.4142 24.8216
lfingers 7.12502
lthumb 13.6578 54.3535
rfemur 6.78144 -1.23907 28.9811
rtibia 18.231
rfoot -18.3468 0.131722
rtoes 9.77837
lfemur -22.8368 -11.052 -5.63612
ltibia 9.65213
lfoot -4.86071 4.79842
ltoes -18.3849
1148
root -5.23216 17.6872 12.4974 -354.687 -56.2528 -7.55624
lowerback 10.047 4.15907 5.33962
upperback 0.219204 6.20129 1.4809
thorax -4.98985 2.93592 -2.29159
lowerneck -15.1442 -6.25601 -10.5369
upperneck 31.4318 -9.3808 8.46285
head 14.2152 -4.38859 3.60718
rclavicle 6.95622e-014 8.15017e-015
rhumerus -25.5504 0.96832 -85.4025
rradius 35.2706
rwrist 2.31393
rhand -13.5471 9.1042
rfingers 7.12502
rthumb 12.5658 -20.4979
lclavicle 6.95622e-014 8.15017e-015
lhumerus -42.4818 4.05865 84.3765
lradius 29.1105
lwrist -8.4183
lhand -12.3645 24.8317
lfingers 7.12502
lthumb 13.7058 54.3603
rfemur 7.20897 -1.0633 28.9373
rtibia 18.0607
rfoot -18.354 -0.169201
rtoes 7.89209
lfemur -22.8692 -10.7508 -5.67465
ltibia 9.52844
lfoot -3.9104 3.50754
ltoes -17.4596
1149
root -5.29826 17.6736 12.5748 -354.615 -56.2848 -7.63763
lowerback 10.2538 4.08084 5.30823
upperback 0.155845 6.11604 1.57889
thorax -5.19292 2.88705 -2.18349
lowerneck -15.1218 -6.2834 -10.6474
upperneck 31.4616 -9.37898 8.41127
head 14.2273 -4.40913 3.60616
rclavicle 7.77248e-014 -1.66979e-014
rhumerus -25.479 0.919782 -85.335
rradius 35.2741
rwrist 2.38576
rhand -13.4609 9.16032
rfingers 7.12502
rthumb 12.6488 -20.4367
lclavicle 7.77248e-014 -1.66979e-014
lhumerus -42.7186 4.03152 84.5954
lradius 29.0847
lwrist -8.40236
lhand -12.2016 24.8631
lfingers 7.12502
lthumb 13.8627 54.3811
rfemur 7.6059 -0.814958 28.96
rtibia 17.9378
rfoot -18.3362 -0.491981
rtoes 5.72508
lfemur -22.9479 -10.4583 -5.6696
ltibia 9.64367
lfoot -3.16417 2.20956
ltoes -16.0637
1150
root -5.36745 17.6557 12.6516 -354.623 -56.385 -7.67665
lowerback 10.4653 4.03438 5.2705
upperback 0.141117 6.06694 1.62124
thorax -5.33905 2.85839 -2.1314
lowerneck -15.1706 -6.32393 -10.729
upperneck 31.4865 -9.43472 8.46625
head 14.2655 -4.43527 3.63206
rclavicle -7.37988e-014 -8.34896e-015
rhumerus -25.3786 0.926238 -85.3569
rradius 35.2876
rwrist 2.34113
rhand -13.369 9.2358
rfingers 7.12502
rthumb 12.7375 -20.3557
lclavicle -7.37988e-014 -8.34896e-015
lhumerus -42.9336 4.27065 84.5996
lradius 29.1
lwrist -8.75676
lhand -12.1774 24.7372
lfingers 7.12502
lthumb 13.8861 54.2536
rfemur 8.03 -0.517113 28.9598
rtibia 17.8923
rfoot -18.4702 -0.761685
rtoes 4.53921
lfemur -22.9574 -10.1299 -5.74583
ltibia 9.93821
lfoot -2.70889 0.917693
ltoes -17.4094
1151
root -5.4372 17.6379 12.732 -354.644 -56.6034 -7.74727
lowerback 10.6122 4.03562 5.19806
upperback 0.211599 6.06804 1.67911
thorax -5.36057 2.86085 -2.04085
lowerneck -15.2516 -6.36731 -10.737
upperneck 31.4527 -9.50562 8.52117
head 14.2819 -4.45713 3.64025
rclavicle -9.99141e-014 -3.57812e-015
rhumerus -25.2223 0.96512 -85.3606
rradius 35.3392
rwrist 2.30264
rhand -13.1667 9.19186
rfingers 7.12502
rthumb 12.9325 -20.3874
lclavicle -9.99141e-014 -3.57812e-015
lhumerus -42.9579 4.41961 84.6575
lradius 28.9938
lwrist -9.04256
lhand -12.3204 24.686
lfingers 7.12502
lthumb 13.7483 54.2118
rfemur 8.47598 -0.191455 28.9301
rtibia 17.922
rfoot -18.6018 -0.913661
rtoes 4.32705
lfemur -22.8748 -9.71535 -5.87501
ltibia 10.3303
lfoot -2.53926 -0.66421
ltoes -20.0715
1152
root -5.50949 17.6179 12.819 -354.674 -56.9437 -7.83477
lowerback 10.6847 4.09891 5.21647
upperback 0.321157 6.15209 1.68433
thorax -5.27841 2.90531 -2.05741
lowerneck -15.1652 -6.44258 -10.7348
upperneck 31.2762 -9.62959 8.57948
head 14.204 -4.50435 3.63815
rclavicle 1.93815e-015 -2.0276e-014
rhumerus -25.1762 0.901424 -85.387
rradius 35.5476
rwrist 2.34488
rhand -13.0724 9.05253
rfingers 7.12502
rthumb 13.0234 -20.5209
lclavicle 1.93815e-015 -2.0276e-014
lhumerus -42.8552 4.14773 84.8473
lradius 28.8199
lwrist -8.96943
lhand -12.1495 24.9004
lfingers 7.12502
lthumb 13.913 54.415
rfemur 8.96657 0.196383 28.8847
rtibia 17.9789
rfoot -18.6833 -1.07388
rtoes 3.76969
lfemur -22.7246 -9.6066 -5.87605
ltibia 10.7669
lfoot -2.58465 -2.16718
ltoes -21.4112
1153
root -5.58493 17.5992 12.9134 -354.907 -57.5031 -7.73688
lowerback 10.7971 4.20135 5.12038
upperback 0.425601 6.27746 1.69115
thorax -5.23341 2.97167 -2.01904
lowerneck -15.0129 -6.47641 -10.8225
upperneck 31.1653 -9.67169 8.6116
head 14.1342 -4.53364 3.65903
rclavicle 7.76751e-014 -8.74653e-015
rhumerus -25.2157 0.801571 -85.388
rradius 35.758
rwrist 2.50433
rhand -13.1536 8.93103
rfingers 7.12502
rthumb 12.9452 -20.6474
lclavicle 7.76751e-014 -8.74653e-015
lhumerus -42.8676 4.10271 85.0097
lradius 28.6826
lwrist -9.00306
lhand -11.8041 24.8847
lfingers 7.12502
lthumb 14.2458 54.3761
rfemur 9.5623 0.824989 28.7191
rtibia 18.0458
rfoot -18.7234 -1.30515
rtoes 2.96511
lfemur -22.3979 -9.80228 -5.90131
ltibia 11.2101
lfoot -2.85195 -3.49067
ltoes -21.9281
